# xmcd CD database file generated by OrangeCD 5.0
#
# Track frame offsets:
#	150
#	100985
#	174495
#	250020
#	254232
#
# Disc length: 3461 seconds
#
# Revision: 0
# Processed by: cddbd v1.4PL0 Copyright (c) Steve Scherf et al.
# Submitted via: OrangeCD 5.0
#
DISCID=400d8305
DTITLE=Neil Young - In the Studio show #193
DYEAR=1992
DGENRE=Country
TTITLE0=Segment 1
TTITLE1=Segment 2
TTITLE2=Segment 3
TTITLE3=Segment 4
TTITLE4=Promo Segment
EXTD=
EXTT0=
EXTT1=
EXTT2=
EXTT3=
EXTT4=
PLAYORDER=
